<svg xmlns="http://www.w3.org/2000/svg" width="604.119" height="229.564" viewBox="0 0 604.119 229.564">
  <g id="Group_693" data-name="Group 693" transform="translate(-750.882 -176.246)">
    <g id="Group_131" data-name="Group 131" transform="translate(28 -21.556)">
      <g id="Group_692" data-name="Group 692" transform="translate(722.882 197.802)">
        <g id="Group_681" data-name="Group 681" transform="translate(7.62 0)">
          <g id="Group_643" data-name="Group 643" transform="translate(0 0)">
            <g id="Group_641" data-name="Group 641" transform="translate(139.388 35.734)">
              <path id="Exclusion_1" data-name="Exclusion 1" d="M53.677,101.634H0L26.193,0H68.9A97.389,97.389,0,0,1,78.9,1.033a80.722,80.722,0,0,1,9.138,1.915,43.669,43.669,0,0,1,8.9,3.407h0a33.41,33.41,0,0,1,7.7,5.771,35.71,35.71,0,0,1,5.929,7.656A34.038,34.038,0,0,1,114.6,31.009a27.452,27.452,0,0,1,1.143,9.113,51.62,51.62,0,0,1-1.357,10.884,74.424,74.424,0,0,1-5.119,14.65,66.819,66.819,0,0,1-4.194,7.7,58.389,58.389,0,0,1-4.971,6.716,54.963,54.963,0,0,1-5.752,5.763,55.678,55.678,0,0,1-6.539,4.846,61.284,61.284,0,0,1-7.331,3.968,71.762,71.762,0,0,1-8.129,3.122,99.469,99.469,0,0,1-18.674,3.859h0ZM48.636,18.016h0L31.981,84.644H48.635c1.143-.2,2.146-.367,3.246-.551,7.64-1.27,10.8-1.8,18.409-7.564a34.984,34.984,0,0,0,5.262-4.783A32.679,32.679,0,0,0,83.064,58.56l.051-.191c3.009-11.243,5-18.67.835-26.868-4.035-7.948-8.437-12.45-20.125-13.486H48.636Z" transform="translate(0)"/>
            </g>
            <g id="Group_642" data-name="Group 642" transform="translate(263.285 35.734)">
              <path id="Exclusion_1-2" data-name="Exclusion 1" d="M53.677,101.634H0L26.193,0H68.9A97.389,97.389,0,0,1,78.9,1.033a80.722,80.722,0,0,1,9.138,1.915,43.669,43.669,0,0,1,8.9,3.407h0a33.41,33.41,0,0,1,7.7,5.771,35.71,35.71,0,0,1,5.929,7.656A34.038,34.038,0,0,1,114.6,31.009a27.452,27.452,0,0,1,1.143,9.113,51.62,51.62,0,0,1-1.357,10.884,74.424,74.424,0,0,1-5.119,14.65,66.819,66.819,0,0,1-4.194,7.7,58.389,58.389,0,0,1-4.971,6.716,54.963,54.963,0,0,1-5.752,5.763,55.678,55.678,0,0,1-6.539,4.846,61.284,61.284,0,0,1-7.331,3.968,71.762,71.762,0,0,1-8.129,3.122,99.469,99.469,0,0,1-18.674,3.859h0ZM48.636,18.016h0L31.981,84.644H48.635c1.143-.2,2.146-.367,3.246-.551,7.64-1.27,10.8-1.8,18.409-7.564a34.984,34.984,0,0,0,5.262-4.783A32.679,32.679,0,0,0,83.064,58.56l.051-.191c3.009-11.243,5-18.67.835-26.868-4.035-7.948-8.437-12.45-20.125-13.486H48.636Z" transform="translate(0)"/>
            </g>
            <path id="Path_1195" data-name="Path 1195" d="M1913.808,21175.672l5.663-24.316a177.377,177.377,0,0,0-27.65-5.346,162.152,162.152,0,0,0-27.317,0c-13.2,1.395-25.834,8.434-25.834,8.434a34.626,34.626,0,0,0-12.932,16.4c-.122,1.119-.251,2.166-.394,3.367-1.4,8.133-1.586,14.266,8.51,24.107,12.239,8.818,29.123,9.166,40.644,14.99,0,0,10.216,3.076,8.327,10.67a11.931,11.931,0,0,1-8.327,8.99c-6.913,2.756-19.323,2.006-19.323,2.006-11.077-1.088-19.933-3.748-24.985-6.328s-6.489-4.867-11.04-7.85h-2.394l-5.868,24.773c11.5,3.475,16.525,5.027,24.429,6.391a125.222,125.222,0,0,0,39.182,0s15.324-3.166,24.319-10.67c9-7.486,9.971-9.213,11.219-19.309,1.249-10.068-.479-16.283-7.545-21.541s-19.826-9.229-27.993-11.738-10.743-1.859-16.325-5.045c-5.579-3.164-5.974-7.982-5.974-7.982.5-5.293,3.232-10.447,14.3-12.66,0,0,13.477-1.508,22.219.895s17.842,7.42,22.751,11.766Z" transform="translate(-1428.954 -21112.252)"/>
            <g id="Group_687" data-name="Group 687">
              <path id="Path_1194" data-name="Path 1194" d="M1266.387,21178.074l-29.649,111.8H1226.41l17.276,31.234,30.562-31.234h-10.963l20.6-80.039,29.566,70.412h23.919l27.907-110.057h10.485l-19.57-27.734-26.971,27.734h10.412l-17.177,66.594-25.259-58.709Z" transform="translate(-1226.41 -21142.455)"/>
            </g>
          </g>
        </g>
        <path id="Path_1229" data-name="Path 1229" d="M1.088,0l4.7-22.016h14.88L19.9-18.432H9.6L8.224-12.224h9.088l-.768,3.616H7.488L5.664,0ZM19.712,0l4.7-22.016H34.784a10.164,10.164,0,0,1,3.7.528,3.441,3.441,0,0,1,1.824,1.5,4.88,4.88,0,0,1,.528,2.352,8.569,8.569,0,0,1-.048.88q-.048.464-.128.976a8.272,8.272,0,0,1-.24,1.056,14.968,14.968,0,0,1-.624,2.192,7.88,7.88,0,0,1-.864,1.7A4.831,4.831,0,0,1,37.7-9.6a6.339,6.339,0,0,1-1.792.832L37.632,0h-4.7L31.616-8.224H26.048L24.288,0Zm7.04-11.648h4.64a9.15,9.15,0,0,0,2.1-.192,3.084,3.084,0,0,0,1.248-.576,2.372,2.372,0,0,0,.7-1.04,11.383,11.383,0,0,0,.432-1.584q.128-.544.192-.992a5.722,5.722,0,0,0,.064-.8,1.547,1.547,0,0,0-.272-.944,1.66,1.66,0,0,0-.96-.544,8.051,8.051,0,0,0-1.9-.176H28.224ZM51.136.256a24.754,24.754,0,0,1-5.248-.432,4.294,4.294,0,0,1-2.672-1.536,5.2,5.2,0,0,1-.784-3.056A16.357,16.357,0,0,1,42.7-7.52q.272-1.568.688-3.616.576-2.752,1.072-4.7a13.492,13.492,0,0,1,1.2-3.216,5.284,5.284,0,0,1,1.84-1.968A7.746,7.746,0,0,1,50.432-22a30.39,30.39,0,0,1,4.448-.272,24.518,24.518,0,0,1,5.232.432A4.281,4.281,0,0,1,62.768-20.3a5.267,5.267,0,0,1,.784,3.088,18.017,18.017,0,0,1-.24,2.752q-.24,1.536-.688,3.584Q62.016-8.1,61.472-6.144a14.511,14.511,0,0,1-1.248,3.2A5.366,5.366,0,0,1,58.4-.992a7.537,7.537,0,0,1-2.864.976A29.385,29.385,0,0,1,51.136.256Zm.224-3.584q1.44,0,2.368-.1a3.974,3.974,0,0,0,1.552-.448,2.672,2.672,0,0,0,1.04-1.184,12.357,12.357,0,0,0,.8-2.272q.384-1.44.864-3.68.448-1.92.656-3.264a15,15,0,0,0,.208-2.208A2.252,2.252,0,0,0,58.432-18a2.077,2.077,0,0,0-1.344-.576,21.5,21.5,0,0,0-2.464-.112q-1.44,0-2.384.1a4,4,0,0,0-1.568.448,2.672,2.672,0,0,0-1.04,1.184,12.357,12.357,0,0,0-.8,2.272q-.384,1.44-.832,3.68-.288,1.312-.5,2.352t-.32,1.792a9.313,9.313,0,0,0-.112,1.36A2.138,2.138,0,0,0,47.5-4.016a2.149,2.149,0,0,0,1.36.576A21.864,21.864,0,0,0,51.36-3.328ZM65.312,0l4.7-22.016H76.1L78.912-7.584H79.1l8.96-14.432h6.208L89.568,0H85.152l3.3-15.3h-.224L78.88,0H75.84L73.024-15.3h-.192L69.6,0Zm46.336.256q-1.376,0-2.928-.064T105.7.016q-1.472-.112-2.656-.24l.736-3.52q1.152.1,2.4.192t2.416.16q1.168.064,2,.064,1.056,0,1.808-.048a9.535,9.535,0,0,0,1.3-.16,4.416,4.416,0,0,0,.96-.3,1.874,1.874,0,0,0,.56-.528,4.623,4.623,0,0,0,.432-.752,4.759,4.759,0,0,0,.3-.88,7.223,7.223,0,0,0,.16-.9,6.73,6.73,0,0,0,.048-.72,1.084,1.084,0,0,0-.224-.736,1.474,1.474,0,0,0-.8-.384q-.576-.128-1.632-.256l-4.864-.7a3.752,3.752,0,0,1-2.624-1.2,4.22,4.22,0,0,1-.7-2.576,9.9,9.9,0,0,1,.1-1.3q.1-.72.256-1.488a9.531,9.531,0,0,1,1.248-3.184,5.3,5.3,0,0,1,1.968-1.808,8.217,8.217,0,0,1,2.72-.816,26.029,26.029,0,0,1,3.44-.208q1.376,0,2.816.064t2.72.192a17.334,17.334,0,0,1,2.112.32l-.7,3.424q-.9-.128-2.032-.224t-2.32-.144q-1.184-.048-2.24-.048-.992,0-1.712.064a8.122,8.122,0,0,0-1.232.192,4.382,4.382,0,0,0-.9.32,2.265,2.265,0,0,0-.672.608,3.02,3.02,0,0,0-.448.864,6.318,6.318,0,0,0-.24.96,5.83,5.83,0,0,0-.08.96.833.833,0,0,0,.464.848,6.731,6.731,0,0,0,1.648.368l4.7.64a11.1,11.1,0,0,1,2.048.48,2.92,2.92,0,0,1,1.472,1.088,4.061,4.061,0,0,1,.544,2.336q0,.384-.032.816t-.112.944q-.08.512-.208,1.056a11.04,11.04,0,0,1-1.3,3.536,5.315,5.315,0,0,1-1.936,1.9,7.128,7.128,0,0,1-2.56.784A26.529,26.529,0,0,1,111.648.256ZM123.68,0l4.7-22.016h15.552l-.768,3.584H132.192l-1.184,5.568h9.376l-.768,3.52h-9.344l-1.248,5.76H140L139.232,0Zm19.84,0,4.7-22.016h10.368a10.164,10.164,0,0,1,3.7.528,3.441,3.441,0,0,1,1.824,1.5,4.88,4.88,0,0,1,.528,2.352,8.569,8.569,0,0,1-.048.88q-.048.464-.128.976a8.273,8.273,0,0,1-.24,1.056,14.968,14.968,0,0,1-.624,2.192,7.88,7.88,0,0,1-.864,1.7A4.831,4.831,0,0,1,161.5-9.6a6.34,6.34,0,0,1-1.792.832L161.44,0h-4.7l-1.312-8.224h-5.568L148.1,0Zm7.04-11.648h4.64a9.15,9.15,0,0,0,2.1-.192,3.084,3.084,0,0,0,1.248-.576,2.372,2.372,0,0,0,.7-1.04,11.383,11.383,0,0,0,.432-1.584q.128-.544.192-.992a5.721,5.721,0,0,0,.064-.8,1.547,1.547,0,0,0-.272-.944,1.66,1.66,0,0,0-.96-.544,8.051,8.051,0,0,0-1.9-.176h-4.768ZM170.656,0,167.9-22.016h4.576L174.5-5.184h.192l9.248-16.832h4.736L176.512,0Zm16.736,0,4.7-22.016h15.552l-.768,3.584H195.9l-1.184,5.568H204.1l-.768,3.52h-9.344l-1.248,5.76h10.976L202.944,0Zm19.84,0,4.7-22.016H222.3a10.164,10.164,0,0,1,3.7.528,3.441,3.441,0,0,1,1.824,1.5,4.88,4.88,0,0,1,.528,2.352,8.569,8.569,0,0,1-.048.88q-.048.464-.128.976a8.273,8.273,0,0,1-.24,1.056,14.968,14.968,0,0,1-.624,2.192,7.88,7.88,0,0,1-.864,1.7A4.831,4.831,0,0,1,225.216-9.6a6.34,6.34,0,0,1-1.792.832L225.152,0h-4.7l-1.312-8.224h-5.568L211.808,0Zm7.04-11.648h4.64a9.15,9.15,0,0,0,2.1-.192,3.084,3.084,0,0,0,1.248-.576,2.372,2.372,0,0,0,.7-1.04,11.383,11.383,0,0,0,.432-1.584q.128-.544.192-.992a5.721,5.721,0,0,0,.064-.8,1.547,1.547,0,0,0-.272-.944,1.66,1.66,0,0,0-.96-.544,8.051,8.051,0,0,0-1.9-.176h-4.768ZM242.016,0l3.9-18.24H239.3l.8-3.776H257.92l-.8,3.776H250.5L246.624,0Zm23.968.256a24.754,24.754,0,0,1-5.248-.432,4.294,4.294,0,0,1-2.672-1.536,5.2,5.2,0,0,1-.784-3.056,16.357,16.357,0,0,1,.272-2.752q.272-1.568.688-3.616.576-2.752,1.072-4.7a13.492,13.492,0,0,1,1.2-3.216,5.284,5.284,0,0,1,1.84-1.968A7.746,7.746,0,0,1,265.28-22a30.391,30.391,0,0,1,4.448-.272,24.518,24.518,0,0,1,5.232.432,4.281,4.281,0,0,1,2.656,1.536,5.266,5.266,0,0,1,.784,3.088,18.016,18.016,0,0,1-.24,2.752q-.24,1.536-.688,3.584-.608,2.784-1.152,4.736a14.511,14.511,0,0,1-1.248,3.2,5.366,5.366,0,0,1-1.824,1.952,7.537,7.537,0,0,1-2.864.976A29.385,29.385,0,0,1,265.984.256Zm.224-3.584q1.44,0,2.368-.1a3.974,3.974,0,0,0,1.552-.448,2.671,2.671,0,0,0,1.04-1.184,12.357,12.357,0,0,0,.8-2.272q.384-1.44.864-3.68.448-1.92.656-3.264a15,15,0,0,0,.208-2.208A2.252,2.252,0,0,0,273.28-18a2.077,2.077,0,0,0-1.344-.576,21.5,21.5,0,0,0-2.464-.112q-1.44,0-2.384.1a4,4,0,0,0-1.568.448,2.672,2.672,0,0,0-1.04,1.184,12.36,12.36,0,0,0-.8,2.272q-.384,1.44-.832,3.68-.288,1.312-.5,2.352t-.32,1.792a9.311,9.311,0,0,0-.112,1.36,2.138,2.138,0,0,0,.432,1.488,2.149,2.149,0,0,0,1.36.576A21.864,21.864,0,0,0,266.208-3.328ZM296.832.256q-1.376,0-2.928-.064T290.88.016q-1.472-.112-2.656-.24l.736-3.52q1.152.1,2.4.192t2.416.16q1.168.064,2,.064,1.056,0,1.808-.048a9.536,9.536,0,0,0,1.3-.16,4.417,4.417,0,0,0,.96-.3,1.874,1.874,0,0,0,.56-.528,4.624,4.624,0,0,0,.432-.752,4.76,4.76,0,0,0,.3-.88,7.223,7.223,0,0,0,.16-.9,6.726,6.726,0,0,0,.048-.72,1.084,1.084,0,0,0-.224-.736,1.473,1.473,0,0,0-.8-.384q-.576-.128-1.632-.256l-4.864-.7a3.752,3.752,0,0,1-2.624-1.2,4.22,4.22,0,0,1-.7-2.576,9.9,9.9,0,0,1,.1-1.3q.1-.72.256-1.488A9.531,9.531,0,0,1,292.1-19.44a5.3,5.3,0,0,1,1.968-1.808,8.217,8.217,0,0,1,2.72-.816,26.029,26.029,0,0,1,3.44-.208q1.376,0,2.816.064t2.72.192a17.334,17.334,0,0,1,2.112.32l-.7,3.424q-.9-.128-2.032-.224t-2.32-.144q-1.184-.048-2.24-.048-.992,0-1.712.064a8.122,8.122,0,0,0-1.232.192,4.382,4.382,0,0,0-.9.32,2.265,2.265,0,0,0-.672.608,3.02,3.02,0,0,0-.448.864,6.316,6.316,0,0,0-.24.96,5.829,5.829,0,0,0-.08.96.833.833,0,0,0,.464.848,6.73,6.73,0,0,0,1.648.368l4.7.64a11.1,11.1,0,0,1,2.048.48,2.92,2.92,0,0,1,1.472,1.088,4.061,4.061,0,0,1,.544,2.336q0,.384-.032.816t-.112.944q-.08.512-.208,1.056a11.04,11.04,0,0,1-1.3,3.536,5.315,5.315,0,0,1-1.936,1.9,7.128,7.128,0,0,1-2.56.784A26.528,26.528,0,0,1,296.832.256Zm21.312,0A24.755,24.755,0,0,1,312.9-.176a4.294,4.294,0,0,1-2.672-1.536,5.2,5.2,0,0,1-.784-3.056,16.357,16.357,0,0,1,.272-2.752q.272-1.568.688-3.616.576-2.752,1.072-4.7a13.492,13.492,0,0,1,1.2-3.216,5.285,5.285,0,0,1,1.84-1.968A7.747,7.747,0,0,1,317.44-22a30.391,30.391,0,0,1,4.448-.272,24.518,24.518,0,0,1,5.232.432,4.281,4.281,0,0,1,2.656,1.536,5.266,5.266,0,0,1,.784,3.088,18.016,18.016,0,0,1-.24,2.752q-.24,1.536-.688,3.584-.608,2.784-1.152,4.736a14.511,14.511,0,0,1-1.248,3.2,5.366,5.366,0,0,1-1.824,1.952,7.537,7.537,0,0,1-2.864.976A29.385,29.385,0,0,1,318.144.256Zm.224-3.584q1.44,0,2.368-.1a3.973,3.973,0,0,0,1.552-.448,2.672,2.672,0,0,0,1.04-1.184,12.36,12.36,0,0,0,.8-2.272q.384-1.44.864-3.68.448-1.92.656-3.264a15.007,15.007,0,0,0,.208-2.208A2.252,2.252,0,0,0,325.44-18a2.076,2.076,0,0,0-1.344-.576,21.5,21.5,0,0,0-2.464-.112q-1.44,0-2.384.1a4,4,0,0,0-1.568.448,2.671,2.671,0,0,0-1.04,1.184,12.357,12.357,0,0,0-.8,2.272q-.384,1.44-.832,3.68-.288,1.312-.5,2.352t-.32,1.792a9.311,9.311,0,0,0-.112,1.36,2.138,2.138,0,0,0,.432,1.488,2.149,2.149,0,0,0,1.36.576A21.863,21.863,0,0,0,318.368-3.328ZM332.32,0l4.7-22.016h10.368a10.164,10.164,0,0,1,3.7.528,3.441,3.441,0,0,1,1.824,1.5,4.88,4.88,0,0,1,.528,2.352,8.565,8.565,0,0,1-.048.88q-.048.464-.128.976a8.276,8.276,0,0,1-.24,1.056,14.967,14.967,0,0,1-.624,2.192,7.879,7.879,0,0,1-.864,1.7A4.83,4.83,0,0,1,350.3-9.6a6.339,6.339,0,0,1-1.792.832L350.24,0h-4.7l-1.312-8.224h-5.568L336.9,0Zm7.04-11.648H344a9.15,9.15,0,0,0,2.1-.192,3.084,3.084,0,0,0,1.248-.576,2.372,2.372,0,0,0,.7-1.04,11.385,11.385,0,0,0,.432-1.584q.128-.544.192-.992a5.721,5.721,0,0,0,.064-.8,1.547,1.547,0,0,0-.272-.944,1.66,1.66,0,0,0-.96-.544,8.05,8.05,0,0,0-1.9-.176h-4.768ZM358.944,0l3.9-18.24h-6.624l.8-3.776h17.824l-.8,3.776h-6.624L363.552,0Zm14.688,0,4.7-22.016h4.576L378.208,0Zm9.952,0,4.7-22.016H403.84l-.768,3.584H392.1l-1.184,5.568h9.376l-.768,3.52h-9.344l-1.248,5.76H399.9L399.136,0Z" transform="translate(62.272 180.034)"/>
        <path id="Path_1208" data-name="Path 1208" d="M19966.145,17441.23l4.732-2.574-9.475-21.15h9.475l14.9,18.854s40.324-3.738,46.656-4.266,10.283-3.045,14.441-2.223,9.205,7.707,9.205,7.707,13.787,5.227,13.77,7.227-34.641,4.8-34.641,4.8h-59.871l-9.191-3.33-500.416,10.342,3.748-16.584Z" transform="translate(-19465.729 -17254.605)"/>
      </g>
      <path id="Path_1228" data-name="Path 1228" d="M.4,0,3.34-13.76H6.96L9.98-6.24h.14l1.62-7.52h3.3L12.1,0H8.8L5.6-8.26H5.46L3.7,0ZM21.36.16a5.353,5.353,0,0,1-1.71-.23,1.722,1.722,0,0,1-.99-.81,3.387,3.387,0,0,1-.32-1.62,10.033,10.033,0,0,1,.08-1.17q.08-.67.24-1.49a18.715,18.715,0,0,1,.69-2.53,5.27,5.27,0,0,1,.87-1.6,2.751,2.751,0,0,1,1.15-.83,4.481,4.481,0,0,1,1.55-.24,7.738,7.738,0,0,1,1.29.1,2.754,2.754,0,0,1,1.03.38,1.7,1.7,0,0,1,.66.82h.16l.38-1.14h3.08L27.36,0H24.3l.2-1.26h-.18a2.858,2.858,0,0,1-.87.91,2.906,2.906,0,0,1-1.02.41A5.759,5.759,0,0,1,21.36.16ZM23-2.4a3.238,3.238,0,0,0,.79-.08,1.275,1.275,0,0,0,.52-.26,1.45,1.45,0,0,0,.35-.46,5.138,5.138,0,0,0,.21-.57q.11-.35.22-.76t.21-.83a7.928,7.928,0,0,0,.15-.8,4.952,4.952,0,0,0,.05-.62.932.932,0,0,0-.3-.8,1.92,1.92,0,0,0-1.08-.22,4.215,4.215,0,0,0-.91.08,1.073,1.073,0,0,0-.58.34,2.125,2.125,0,0,0-.39.8q-.16.54-.36,1.48-.14.64-.21,1.09a5.041,5.041,0,0,0-.07.75.964.964,0,0,0,.13.56.683.683,0,0,0,.45.24A4.588,4.588,0,0,0,23-2.4ZM35.18,0l-.96-10.2h3.14l.48,7.34h.18l3.54-7.34h3.3L39.52,0ZM50.76.16a5.353,5.353,0,0,1-1.71-.23,1.722,1.722,0,0,1-.99-.81,3.387,3.387,0,0,1-.32-1.62,10.033,10.033,0,0,1,.08-1.17q.08-.67.24-1.49a18.715,18.715,0,0,1,.69-2.53,5.27,5.27,0,0,1,.87-1.6,2.751,2.751,0,0,1,1.15-.83,4.481,4.481,0,0,1,1.55-.24,7.738,7.738,0,0,1,1.29.1,2.754,2.754,0,0,1,1.03.38,1.7,1.7,0,0,1,.66.82h.16l.38-1.14h3.08L56.76,0H53.7l.2-1.26h-.18a2.858,2.858,0,0,1-.87.91,2.906,2.906,0,0,1-1.02.41A5.759,5.759,0,0,1,50.76.16ZM52.4-2.4a3.238,3.238,0,0,0,.79-.08,1.275,1.275,0,0,0,.52-.26,1.45,1.45,0,0,0,.35-.46,5.138,5.138,0,0,0,.21-.57q.11-.35.22-.76t.21-.83a7.928,7.928,0,0,0,.15-.8,4.951,4.951,0,0,0,.05-.62.932.932,0,0,0-.3-.8,1.92,1.92,0,0,0-1.08-.22,4.215,4.215,0,0,0-.91.08,1.073,1.073,0,0,0-.58.34,2.125,2.125,0,0,0-.39.8q-.16.54-.36,1.48-.14.64-.21,1.09a5.041,5.041,0,0,0-.07.75.964.964,0,0,0,.13.56.683.683,0,0,0,.45.24A4.588,4.588,0,0,0,52.4-2.4ZM62.44,0l3.12-14.86h3.26L65.68,0Zm17.4,0,2.94-13.76H87.5a16.324,16.324,0,0,1,3.36.27,2.84,2.84,0,0,1,1.72.93,3.063,3.063,0,0,1,.5,1.88,11.254,11.254,0,0,1-.15,1.69q-.15.97-.41,2.23-.36,1.68-.67,2.87a7.625,7.625,0,0,1-.76,1.95A3.366,3.366,0,0,1,89.93-.75a4.847,4.847,0,0,1-1.83.59A20.708,20.708,0,0,1,85.26,0ZM83.9-2.62h1.3q.86,0,1.41-.05a2.111,2.111,0,0,0,.9-.26,1.644,1.644,0,0,0,.59-.66,5.97,5.97,0,0,0,.45-1.24q.21-.79.47-2.05.24-1.08.37-1.82a7.321,7.321,0,0,0,.13-1.22,1.513,1.513,0,0,0-.13-.69.753.753,0,0,0-.43-.36,2.825,2.825,0,0,0-.78-.14q-.48-.03-1.18-.03H85.72ZM100.02.16a5.353,5.353,0,0,1-1.71-.23,1.722,1.722,0,0,1-.99-.81A3.387,3.387,0,0,1,97-2.5a10.032,10.032,0,0,1,.08-1.17q.08-.67.24-1.49a18.715,18.715,0,0,1,.69-2.53,5.27,5.27,0,0,1,.87-1.6,2.751,2.751,0,0,1,1.15-.83,4.481,4.481,0,0,1,1.55-.24,7.738,7.738,0,0,1,1.29.1,2.754,2.754,0,0,1,1.03.38,1.7,1.7,0,0,1,.66.82h.16l.38-1.14h3.08L106.02,0h-3.06l.2-1.26h-.18a2.858,2.858,0,0,1-.87.91,2.906,2.906,0,0,1-1.02.41A5.759,5.759,0,0,1,100.02.16Zm1.64-2.56a3.238,3.238,0,0,0,.79-.08,1.275,1.275,0,0,0,.52-.26,1.45,1.45,0,0,0,.35-.46,5.14,5.14,0,0,0,.21-.57q.11-.35.22-.76t.21-.83a7.928,7.928,0,0,0,.15-.8,4.952,4.952,0,0,0,.05-.62.932.932,0,0,0-.3-.8,1.92,1.92,0,0,0-1.08-.22,4.215,4.215,0,0,0-.91.08,1.073,1.073,0,0,0-.58.34,2.125,2.125,0,0,0-.39.8q-.16.54-.36,1.48-.14.64-.21,1.09a5.04,5.04,0,0,0-.07.75.964.964,0,0,0,.13.56.683.683,0,0,0,.45.24A4.588,4.588,0,0,0,101.66-2.4ZM118.22,0q-1.4,0-2.38-.05a6.477,6.477,0,0,1-1.58-.24,1.576,1.576,0,0,1-.87-.59,1.945,1.945,0,0,1-.27-1.1,5.354,5.354,0,0,1,.03-.55q.03-.29.09-.63t.14-.74l.84-3.92h-1.88l.5-2.38h1.88l.62-2.96h3.26l-.62,2.96h2.26l-.5,2.38h-2.26l-.84,3.96q-.02.1-.05.3t-.07.4a1.686,1.686,0,0,0-.04.28.54.54,0,0,0,.2.43,1.25,1.25,0,0,0,.67.22q.47.05,1.33.05Zm8.42.16a5.353,5.353,0,0,1-1.71-.23,1.722,1.722,0,0,1-.99-.81,3.387,3.387,0,0,1-.32-1.62,10.032,10.032,0,0,1,.08-1.17q.08-.67.24-1.49a18.715,18.715,0,0,1,.69-2.53,5.27,5.27,0,0,1,.87-1.6,2.751,2.751,0,0,1,1.15-.83,4.481,4.481,0,0,1,1.55-.24,7.737,7.737,0,0,1,1.29.1,2.754,2.754,0,0,1,1.03.38,1.7,1.7,0,0,1,.66.82h.16l.38-1.14h3.08L132.64,0h-3.06l.2-1.26h-.18a2.858,2.858,0,0,1-.87.91,2.906,2.906,0,0,1-1.02.41A5.759,5.759,0,0,1,126.64.16Zm1.64-2.56a3.238,3.238,0,0,0,.79-.08,1.275,1.275,0,0,0,.52-.26,1.45,1.45,0,0,0,.35-.46,5.138,5.138,0,0,0,.21-.57q.11-.35.22-.76t.21-.83a7.93,7.93,0,0,0,.15-.8,4.951,4.951,0,0,0,.05-.62.932.932,0,0,0-.3-.8,1.92,1.92,0,0,0-1.08-.22,4.215,4.215,0,0,0-.91.08,1.073,1.073,0,0,0-.58.34,2.125,2.125,0,0,0-.39.8q-.16.54-.36,1.48-.14.64-.21,1.09a5.04,5.04,0,0,0-.07.75.964.964,0,0,0,.13.56.683.683,0,0,0,.45.24A4.588,4.588,0,0,0,128.28-2.4ZM146.8,0l2.94-13.76h4.72a16.324,16.324,0,0,1,3.36.27,2.84,2.84,0,0,1,1.72.93,3.063,3.063,0,0,1,.5,1.88,11.255,11.255,0,0,1-.15,1.69q-.15.97-.41,2.23-.36,1.68-.67,2.87a7.624,7.624,0,0,1-.76,1.95,3.366,3.366,0,0,1-1.16,1.19,4.847,4.847,0,0,1-1.83.59,20.708,20.708,0,0,1-2.84.16Zm4.06-2.62h1.3q.86,0,1.41-.05a2.111,2.111,0,0,0,.9-.26,1.644,1.644,0,0,0,.59-.66,5.97,5.97,0,0,0,.45-1.24q.21-.79.47-2.05.24-1.08.37-1.82a7.321,7.321,0,0,0,.13-1.22,1.513,1.513,0,0,0-.13-.69.753.753,0,0,0-.43-.36,2.825,2.825,0,0,0-.78-.14q-.48-.03-1.18-.03h-1.28Zm15.38-9.7.54-2.54h3.3l-.52,2.54ZM163.68,0l2.14-10.2h3.26L166.92,0Zm13.16.16q-.68,0-1.46-.04t-1.51-.1q-.73-.06-1.29-.12l.44-2.2q.42.02.84.06t.83.06q.41.02.78.03t.71.01a8.909,8.909,0,0,0,1.17-.06,1.634,1.634,0,0,0,.66-.21,1.069,1.069,0,0,0,.37-.43.852.852,0,0,0,.15-.26.885.885,0,0,0,.05-.3.311.311,0,0,0-.21-.32,3.638,3.638,0,0,0-.79-.14l-2.5-.34a1.785,1.785,0,0,1-1.18-.54,1.76,1.76,0,0,1-.34-1.14,4.415,4.415,0,0,1,.06-.65q.06-.39.14-.81a5.13,5.13,0,0,1,.64-1.65,2.48,2.48,0,0,1,1-.9,4.323,4.323,0,0,1,1.41-.38,16.71,16.71,0,0,1,1.83-.09q.66,0,1.37.04t1.35.1q.64.06,1.06.14l-.46,2.2q-.54-.06-1.08-.1t-1.01-.06q-.47-.02-.83-.02-.58,0-1.01.02a2.357,2.357,0,0,0-.72.13.787.787,0,0,0-.43.37.959.959,0,0,0-.16.28,1.083,1.083,0,0,0-.06.38.294.294,0,0,0,.19.31,3.664,3.664,0,0,0,.73.13l2.36.34a3.32,3.32,0,0,1,.92.23,1.284,1.284,0,0,1,.61.51,1.926,1.926,0,0,1,.21,1,5.232,5.232,0,0,1-.04.57,5.839,5.839,0,0,1-.14.75,5.548,5.548,0,0,1-.61,1.75,2.472,2.472,0,0,1-.96.95,3.952,3.952,0,0,1-1.34.4A13.706,13.706,0,0,1,176.84.16ZM192.66,0q-1.4,0-2.38-.05a6.477,6.477,0,0,1-1.58-.24,1.576,1.576,0,0,1-.87-.59,1.945,1.945,0,0,1-.27-1.1,5.354,5.354,0,0,1,.03-.55q.03-.29.09-.63t.14-.74l.84-3.92h-1.88l.5-2.38h1.88l.62-2.96h3.26l-.62,2.96h2.26l-.5,2.38h-2.26l-.84,3.96q-.02.1-.05.3t-.07.4a1.685,1.685,0,0,0-.04.28.54.54,0,0,0,.2.43,1.25,1.25,0,0,0,.67.22q.47.05,1.33.05Zm5.1,0,2.16-10.2h3.06l-.3,1.82h.16a4.444,4.444,0,0,1,.96-1.24,2.8,2.8,0,0,1,1.17-.58,6.816,6.816,0,0,1,1.57-.16l-.62,2.9a6.877,6.877,0,0,0-1.75.19,2.552,2.552,0,0,0-1.15.62,3.328,3.328,0,0,0-.73,1.14,10.279,10.279,0,0,0-.51,1.77L200.96,0Zm14.1-12.32.54-2.54h3.3l-.52,2.54ZM209.3,0l2.14-10.2h3.26L212.54,0Zm15.54.16a7.145,7.145,0,0,1-1.27-.11,2.775,2.775,0,0,1-1.06-.41,1.673,1.673,0,0,1-.65-.9h-.18L221.32,0h-3.04l3.16-14.86h3.2l-1.22,5.8h.16a3.094,3.094,0,0,1,.86-.82,2.943,2.943,0,0,1,.97-.38,5.34,5.34,0,0,1,1.03-.1,4.939,4.939,0,0,1,1.72.25,1.807,1.807,0,0,1,.98.83,3.387,3.387,0,0,1,.32,1.62,10.034,10.034,0,0,1-.08,1.17q-.08.67-.24,1.49a17.109,17.109,0,0,1-.7,2.54,5.144,5.144,0,0,1-.88,1.57,2.808,2.808,0,0,1-1.16.81A4.567,4.567,0,0,1,224.84.16ZM223.68-2.4a5.1,5.1,0,0,0,.94-.07.959.959,0,0,0,.58-.34,2.355,2.355,0,0,0,.38-.81q.16-.54.36-1.48.12-.64.21-1.08a3.746,3.746,0,0,0,.09-.72.948.948,0,0,0-.15-.59.739.739,0,0,0-.46-.25,4.557,4.557,0,0,0-.83-.06,3.727,3.727,0,0,0-.72.06,1.307,1.307,0,0,0-.51.21,1.323,1.323,0,0,0-.37.43,4.963,4.963,0,0,0-.23.58q-.13.38-.25.84t-.22.92q-.1.46-.15.83a4.538,4.538,0,0,0-.05.55.852.852,0,0,0,.32.77A2.008,2.008,0,0,0,223.68-2.4ZM236.64.16a4.424,4.424,0,0,1-1.69-.26,1.6,1.6,0,0,1-.86-.78,2.94,2.94,0,0,1-.25-1.28,6.106,6.106,0,0,1,.1-.99q.1-.59.22-1.21l1.24-5.84h3.22l-1.14,5.36q-.1.52-.18.95a3.922,3.922,0,0,0-.08.67.937.937,0,0,0,.12.52.558.558,0,0,0,.38.23,3.874,3.874,0,0,0,.7.05,2.914,2.914,0,0,0,.95-.13,1.175,1.175,0,0,0,.58-.42,2.676,2.676,0,0,0,.36-.77,11.783,11.783,0,0,0,.29-1.18l1.14-5.28h3.2L242.78,0h-3.06l.18-1.26h-.16a3.12,3.12,0,0,1-.84.81,3.641,3.641,0,0,1-1.04.46A4.7,4.7,0,0,1,236.64.16ZM254.98,0q-1.4,0-2.38-.05a6.477,6.477,0,0,1-1.58-.24,1.576,1.576,0,0,1-.87-.59,1.945,1.945,0,0,1-.27-1.1,5.354,5.354,0,0,1,.03-.55q.03-.29.09-.63t.14-.74l.84-3.92H249.1l.5-2.38h1.88l.62-2.96h3.26l-.62,2.96H257l-.5,2.38h-2.26l-.84,3.96q-.02.1-.05.3t-.07.4a1.685,1.685,0,0,0-.04.28.54.54,0,0,0,.2.43,1.25,1.25,0,0,0,.67.22q.47.05,1.33.05Zm7.68-12.32.54-2.54h3.3l-.52,2.54ZM260.1,0l2.14-10.2h3.26L263.34,0Zm13.7.16a13.624,13.624,0,0,1-2.78-.22,2.326,2.326,0,0,1-1.41-.76,2.358,2.358,0,0,1-.41-1.46,7.266,7.266,0,0,1,.12-1.23q.12-.69.3-1.59.28-1.28.52-2.18a6.116,6.116,0,0,1,.59-1.5,2.739,2.739,0,0,1,.9-.95,3.765,3.765,0,0,1,1.44-.49,14.579,14.579,0,0,1,2.21-.14,13.471,13.471,0,0,1,2.77.22,2.317,2.317,0,0,1,1.4.76,2.394,2.394,0,0,1,.41,1.48,9.621,9.621,0,0,1-.09,1.23q-.09.69-.29,1.57-.28,1.28-.54,2.18a7.01,7.01,0,0,1-.6,1.5,2.654,2.654,0,0,1-.89.95,3.765,3.765,0,0,1-1.44.49A14.579,14.579,0,0,1,273.8.16Zm.14-2.38a6.09,6.09,0,0,0,.86-.05,1.175,1.175,0,0,0,.55-.21,1.274,1.274,0,0,0,.36-.47,4.381,4.381,0,0,0,.28-.84q.13-.53.29-1.31.16-.74.24-1.24a5.4,5.4,0,0,0,.08-.82.826.826,0,0,0-.14-.53.754.754,0,0,0-.46-.23,4.877,4.877,0,0,0-.86-.06,5.162,5.162,0,0,0-1.02.08.885.885,0,0,0-.58.38,2.962,2.962,0,0,0-.35.87q-.15.57-.37,1.55-.14.76-.24,1.26a4.354,4.354,0,0,0-.1.82.833.833,0,0,0,.14.52.69.69,0,0,0,.46.23A5.834,5.834,0,0,0,273.94-2.22ZM283.72,0l2.16-10.2h3.06l-.18,1.26h.18a2.937,2.937,0,0,1,.83-.82,3.622,3.622,0,0,1,1.05-.45,4.774,4.774,0,0,1,1.2-.15,4.654,4.654,0,0,1,1.71.25,1.537,1.537,0,0,1,.85.75,2.963,2.963,0,0,1,.24,1.28,7.5,7.5,0,0,1-.08.97q-.08.59-.22,1.21L293.26,0h-3.2l1.14-5.36q.1-.52.18-.95a3.923,3.923,0,0,0,.08-.67.833.833,0,0,0-.13-.51.655.655,0,0,0-.39-.23,3.243,3.243,0,0,0-.7-.06,2.822,2.822,0,0,0-.94.13,1.237,1.237,0,0,0-.58.42,2.366,2.366,0,0,0-.36.77q-.14.48-.3,1.18L286.92,0Zm29.14.16q-.86,0-1.83-.04T309.14,0q-.92-.08-1.62-.16l.52-2.54q.72.06,1.48.12t1.45.09q.69.03,1.19.03.62,0,1.05-.02a4.718,4.718,0,0,0,.72-.08,2.417,2.417,0,0,0,.51-.16,1.2,1.2,0,0,0,.26-.26,2.172,2.172,0,0,0,.22-.37,2.015,2.015,0,0,0,.15-.44q.05-.23.08-.46a3.1,3.1,0,0,0,.03-.39.558.558,0,0,0-.12-.39.937.937,0,0,0-.47-.21q-.35-.08-1.05-.2l-2.78-.42a2.008,2.008,0,0,1-1.46-.71,2.7,2.7,0,0,1-.4-1.57,7.378,7.378,0,0,1,.06-.89q.06-.49.18-1.03a6.342,6.342,0,0,1,.81-2.03,3.371,3.371,0,0,1,1.26-1.16,5.391,5.391,0,0,1,1.75-.53,16.093,16.093,0,0,1,2.22-.14q.84,0,1.74.05t1.68.13a10.852,10.852,0,0,1,1.3.2l-.52,2.48q-.54-.06-1.23-.12t-1.43-.09q-.74-.03-1.38-.03-.54,0-.92.03a4.073,4.073,0,0,0-.66.1,1.47,1.47,0,0,0-.46.19,1.16,1.16,0,0,0-.34.31,1.764,1.764,0,0,0-.23.43,2.109,2.109,0,0,0-.12.48,3.868,3.868,0,0,0-.03.48.455.455,0,0,0,.26.47,4.386,4.386,0,0,0,.94.21l2.62.38a6.532,6.532,0,0,1,1.22.3,1.812,1.812,0,0,1,.9.69,2.589,2.589,0,0,1,.34,1.47q0,.24-.02.52t-.07.6q-.05.32-.13.66a7.5,7.5,0,0,1-.83,2.27,3.393,3.393,0,0,1-1.23,1.23,4.558,4.558,0,0,1-1.64.52A16.208,16.208,0,0,1,312.86.16Zm13.92,3.96q-.7,0-1.39-.03T324.11,4q-.59-.06-.99-.12l.46-2.22q.62,0,1.1.01t.89.01h.77a11.066,11.066,0,0,0,1.51-.08,1.894,1.894,0,0,0,.85-.3,1.315,1.315,0,0,0,.45-.67q.15-.45.31-1.17.04-.2.08-.41t.08-.41h-.16a3.019,3.019,0,0,1-.83.77,3.432,3.432,0,0,1-1.02.42,5.167,5.167,0,0,1-1.19.13,4.23,4.23,0,0,1-1.58-.24,1.53,1.53,0,0,1-.82-.71,2.508,2.508,0,0,1-.24-1.15,5.736,5.736,0,0,1,.07-.86q.07-.46.19-1l1.32-6.2h3.2l-1.1,5.22q-.12.58-.19.97a3.8,3.8,0,0,0-.07.65.749.749,0,0,0,.12.47.576.576,0,0,0,.38.19,4.647,4.647,0,0,0,.68.04,2.662,2.662,0,0,0,.83-.11,1.115,1.115,0,0,0,.54-.38,2.391,2.391,0,0,0,.36-.74q.15-.47.31-1.17l1.08-5.14h3.22L332.64-.48a10.733,10.733,0,0,1-.65,2.1,4.068,4.068,0,0,1-1.03,1.44,3.872,3.872,0,0,1-1.65.81A10.751,10.751,0,0,1,326.78,4.12ZM342.68.16q-.68,0-1.46-.04t-1.51-.1q-.73-.06-1.29-.12l.44-2.2q.42.02.84.06t.83.06q.41.02.78.03t.71.01a8.908,8.908,0,0,0,1.17-.06,1.635,1.635,0,0,0,.66-.21,1.07,1.07,0,0,0,.37-.43.851.851,0,0,0,.15-.26.885.885,0,0,0,.05-.3.311.311,0,0,0-.21-.32,3.638,3.638,0,0,0-.79-.14l-2.5-.34a1.785,1.785,0,0,1-1.18-.54,1.76,1.76,0,0,1-.34-1.14,4.415,4.415,0,0,1,.06-.65q.06-.39.14-.81a5.131,5.131,0,0,1,.64-1.65,2.48,2.48,0,0,1,1-.9,4.323,4.323,0,0,1,1.41-.38,16.71,16.71,0,0,1,1.83-.09q.66,0,1.37.04t1.35.1q.64.06,1.06.14l-.46,2.2q-.54-.06-1.08-.1t-1.01-.06q-.47-.02-.83-.02-.58,0-1.01.02a2.357,2.357,0,0,0-.72.13.787.787,0,0,0-.43.37.959.959,0,0,0-.16.28,1.082,1.082,0,0,0-.06.38.294.294,0,0,0,.19.31,3.664,3.664,0,0,0,.73.13l2.36.34a3.321,3.321,0,0,1,.92.23,1.284,1.284,0,0,1,.61.51,1.926,1.926,0,0,1,.21,1,5.238,5.238,0,0,1-.04.57,5.839,5.839,0,0,1-.14.75,5.549,5.549,0,0,1-.61,1.75,2.472,2.472,0,0,1-.96.95,3.951,3.951,0,0,1-1.34.4A13.706,13.706,0,0,1,342.68.16ZM358.5,0q-1.4,0-2.38-.05a6.477,6.477,0,0,1-1.58-.24,1.576,1.576,0,0,1-.87-.59,1.945,1.945,0,0,1-.27-1.1,5.359,5.359,0,0,1,.03-.55q.03-.29.09-.63t.14-.74l.84-3.92h-1.88l.5-2.38H355l.62-2.96h3.26l-.62,2.96h2.26l-.5,2.38h-2.26l-.84,3.96q-.02.1-.05.3t-.07.4a1.685,1.685,0,0,0-.04.28.54.54,0,0,0,.2.43,1.25,1.25,0,0,0,.67.22q.47.05,1.33.05Zm10.04.16a11.922,11.922,0,0,1-2.76-.25,2.319,2.319,0,0,1-1.4-.82,2.466,2.466,0,0,1-.4-1.45,9.394,9.394,0,0,1,.09-1.22q.09-.68.27-1.5a19.58,19.58,0,0,1,.62-2.38,4.714,4.714,0,0,1,.91-1.64,3.388,3.388,0,0,1,1.57-.95,9.167,9.167,0,0,1,2.64-.31,9.583,9.583,0,0,1,2.43.24,2.108,2.108,0,0,1,1.22.74,2.257,2.257,0,0,1,.35,1.32,7.246,7.246,0,0,1-.06.87q-.06.49-.17,1.02t-.25,1.09l-.18.78h-6.08q-.06.3-.12.62a2.95,2.95,0,0,0-.06.52.8.8,0,0,0,.19.59,1.229,1.229,0,0,0,.72.25,14.88,14.88,0,0,0,1.55.06q.4,0,.93-.02t1.11-.06q.58-.04,1.1-.08L372.3-.18q-.44.1-1.07.18t-1.34.12Q369.18.16,368.54.16Zm-.84-6.12h3.1l.06-.24q.06-.36.1-.62a3.066,3.066,0,0,0,.04-.46.886.886,0,0,0-.12-.51.59.59,0,0,0-.4-.22,4.381,4.381,0,0,0-.74-.05,4.506,4.506,0,0,0-.88.07.97.97,0,0,0-.54.29,1.788,1.788,0,0,0-.34.64A9.928,9.928,0,0,0,367.7-5.96ZM378.16,0l2.16-10.2h3.06l-.18,1.26h.18a3,3,0,0,1,.82-.82,3.542,3.542,0,0,1,1.01-.45,4.275,4.275,0,0,1,1.13-.15,3.92,3.92,0,0,1,1.9.35,1.642,1.642,0,0,1,.78,1.07h.18a2.791,2.791,0,0,1,.86-.82,4.066,4.066,0,0,1,1.08-.45,4.774,4.774,0,0,1,1.2-.15,2.937,2.937,0,0,1,2.08.55,2.328,2.328,0,0,1,.54,1.69,6.964,6.964,0,0,1-.09,1q-.09.6-.23,1.24L393.38,0h-3.22l1.16-5.36q.12-.54.2-.98a4.09,4.09,0,0,0,.08-.68q0-.5-.24-.63a1.792,1.792,0,0,0-.8-.13,2.5,2.5,0,0,0-.88.13,1.151,1.151,0,0,0-.54.41,2.7,2.7,0,0,0-.35.76,11.432,11.432,0,0,0-.29,1.2L387.36,0h-3.2l1.16-5.36q.1-.54.18-.98a4.092,4.092,0,0,0,.08-.68q0-.5-.23-.63a1.723,1.723,0,0,0-.79-.13,2.5,2.5,0,0,0-.88.13,1.129,1.129,0,0,0-.54.42,2.687,2.687,0,0,0-.34.77q-.14.48-.3,1.18L381.36,0Z" transform="translate(782.038 423.246)"/>
    </g>
  </g>
</svg>
